<svg width="22" height="22" viewBox="0 0 22 22" fill="none" xmlns="http://www.w3.org/2000/svg">
<path d="M9.97998 0.99971C9.53273 0.99971 9.11574 1.2098 8.87142 1.55815L7.6087 3.35868L5.55245 4.4923L3.24432 4.60898C2.79772 4.63157 2.39361 4.86234 2.16998 5.22257L1.17742 6.82127C0.953785 7.1815 0.940914 7.62236 1.14318 7.9933L2.1886 9.91052V12.0889L1.14318 14.0061C0.940914 14.3771 0.953785 14.8179 1.17742 15.1781L2.16998 16.7769C2.39361 17.1371 2.79772 17.3678 3.24432 17.3904L5.55245 17.5071L7.66382 18.6407L8.92654 20.4413C9.17085 20.7896 9.58785 20.9997 10.0351 20.9997H12.0202C12.4675 20.9997 12.8845 20.7896 13.1288 20.4413L14.3915 18.6407L16.4478 17.5072L18.7559 17.3905C19.2025 17.3679 19.6066 17.1371 19.8302 16.7769L20.8228 15.1782C21.0464 14.818 21.0593 14.3771 20.857 14.0062L19.8116 12.089V9.91052L20.857 7.9933C21.0593 7.62236 21.0464 7.1815 20.8228 6.82127L19.8302 5.22257C19.6066 4.86234 19.2025 4.63157 18.7559 4.60898L16.4478 4.4923L14.3364 3.35868L13.0737 1.55815C12.8294 1.2098 12.4124 0.99971 11.9651 0.99971H9.97998Z" stroke="#3B3E5B" stroke-width="2"/>
<path d="M8.536 10.9997C8.536 10.1194 9.00565 9.30589 9.76805 8.86572C10.5304 8.42555 11.4698 8.42555 12.2322 8.86572C12.9945 9.30589 13.4642 10.1194 13.4642 10.9997C13.4642 11.88 12.9945 12.6935 12.2322 13.1337C11.4698 13.5738 10.5304 13.5738 9.76805 13.1337C9.00565 12.6935 8.536 11.88 8.536 10.9997Z" stroke="#3B3E5B" stroke-width="2"/>
</svg>
